# xmcd
#
# Track frame offsets: 
#        150
#        9867
#        20064
#        31684
#        43772
#        52828
#        62048
#        72585
#        83980
#        96754
#        106842
#        117386
#        131844
#        142162
#        154068
#        165877
#        175863
#        185026
#        196763
#        206395
#        216866
#        226931
#        239744
#        250202
#        261654
#        273161
#        286683
#        299204
#        311361
#        323910
#        336645
#        348970
#        360052
#        371082
#
# Disc length: 5082 seconds
#
# Revision: 0
# Processed by: cddbd v1.5.2PL0 Copyright (c) Steve Scherf et al.
# Submitted via: ExactAudioCopy v0.99pb4
#
DISCID=0813d822
DTITLE=Red Simpson - Hello, I'm Red Simpson - Disc 1
DYEAR=2012
DGENRE=Country
TTITLE0=Sweet Love
TTITLE1=Dolly Blues
TTITLE2=Big Bank Robbery
TTITLE3=Big Bank Robbery, Part 2
TTITLE4=One Day With My Baby
TTITLE5=Dippy Daddie Love
TTITLE6=Jeanie With The Light Brown Cadillac
TTITLE7=George For A Day
TTITLE8=I've Just Lost You
TTITLE9=Ukulele Bailey
TTITLE10=Truck Drivin' Man
TTITLE11=Truck Driver's Blues
TTITLE12=Six Days On The Road
TTITLE13=Give Me Forty Acres
TTITLE14=Nitro Express
TTITLE15=My Baby's Waitin'
TTITLE16=Motivatin' Man
TTITLE17=Highway Man
TTITLE18=Big Mack
TTITLE19=Happy Go Lucky Truck Driver
TTITLE20=Runaway Truck
TTITLE21=Roll Truck Roll
TTITLE22=The Highway Patrol
TTITLE23=The City Police
TTITLE24=Sidewalk Patrol
TTITLE25=Rules Of The Road
TTITLE26=Dreams Are Made For Fools
TTITLE27=I Fell In Love With You
TTITLE28=I'm Gonna Write Momma For Money
TTITLE29=I'm Actin' Like My Old Self Again
TTITLE30=I Just Cry A Little
TTITLE31=It's My Last Night In Town
TTITLE32=There Ain't Nothin' Happenin' To Me
TTITLE33=The Big Bank Robbery
EXTD=
EXTT0=
EXTT1=
EXTT2=
EXTT3=
EXTT4=
EXTT5=
EXTT6=
EXTT7=
EXTT8=
EXTT9=
EXTT10=
EXTT11=
EXTT12=
EXTT13=
EXTT14=
EXTT15=
EXTT16=
EXTT17=
EXTT18=
EXTT19=
EXTT20=
EXTT21=
EXTT22=
EXTT23=
EXTT24=
EXTT25=
EXTT26=
EXTT27=
EXTT28=
EXTT29=
EXTT30=
EXTT31=
EXTT32=
EXTT33=
PLAYORDER=
